<svg xmlns="http://www.w3.org/2000/svg" xmlns:xlink="http://www.w3.org/1999/xlink" zoomAndPan="magnify" viewBox="0 0 841.92 595.499987"  preserveAspectRatio="xMidYMid meet" version="1.0"><path fill="#ffffff" d="M 432.886719 293.21875 C 441.898438 303.34375 450.691406 313.441406 459.730469 323.316406 C 470.21875 334.769531 483.09375 342.640625 498.175781 346.15625 C 531.734375 353.976562 560.246094 344.914062 582.71875 318.726562 C 593.644531 305.992188 599.707031 290.832031 600.808594 273.933594 C 602.972656 240.738281 589.734375 215.152344 562.023438 197.164062 C 548.464844 188.363281 533.253906 184.789062 517.066406 185.175781 C 495.675781 185.6875 477.328125 193.496094 462.039062 208.273438 C 456.394531 213.730469 451.441406 219.914062 446.289062 225.863281 C 444.921875 227.441406 444.078125 227.664062 442.632812 225.992188 C 436.710938 219.136719 430.695312 212.363281 424.699219 205.578125 C 423.9375 204.714844 423.59375 203.988281 424.46875 202.921875 C 436.9375 187.695312 450.585938 173.886719 468.699219 165.253906 C 481.914062 158.957031 495.714844 154.910156 510.347656 153.871094 C 539.378906 151.808594 565.644531 159.449219 588.632812 177.238281 C 611.320312 194.796875 625.609375 217.847656 630.789062 246.175781 C 636.457031 277.164062 630.429688 305.90625 612.429688 331.753906 C 594.261719 357.847656 569.140625 373.867188 537.808594 378.875 C 500.546875 384.835938 467.714844 374.476562 440.308594 348.484375 C 431.484375 340.113281 423.945312 330.386719 415.8125 321.285156 C 408.207031 312.765625 400.597656 304.25 392.984375 295.738281 C 390.675781 293.160156 390.660156 293.160156 392.917969 290.601562 C 398.648438 284.105469 404.425781 277.648438 410.09375 271.09375 C 411.390625 269.59375 412.183594 269.71875 413.40625 271.121094 C 419.828125 278.476562 426.3125 285.773438 432.886719 293.21875 Z M 432.886719 293.21875 " fill-opacity="1" fill-rule="nonzero"/><path fill="#ffffff" d="M 279.601562 162.195312 C 321.15625 146.292969 359.433594 152.074219 394.722656 178.660156 C 403.113281 184.980469 409.4375 193.304688 416.382812 201.019531 C 427.5 213.371094 438.476562 225.847656 449.53125 238.253906 C 451.8125 240.816406 451.878906 240.800781 449.664062 243.320312 C 444.058594 249.714844 438.441406 256.101562 432.796875 262.464844 C 430.804688 264.710938 430.707031 264.636719 428.699219 262.375 C 415.480469 247.460938 402.167969 232.632812 389.042969 217.640625 C 382.792969 210.5 376.394531 203.609375 368.34375 198.421875 C 353.367188 188.773438 337 184.175781 319.226562 185.320312 C 286.722656 187.410156 263.425781 203.625 248.964844 232.496094 C 242.867188 244.667969 240.515625 257.882812 241.355469 271.492188 C 243.671875 309.0625 269.9375 339.261719 305.195312 346.875 C 333.492188 352.984375 358.820312 346.078125 380.066406 326.125 C 385.960938 320.59375 390.996094 314.144531 396.324219 308.027344 C 397.601562 306.558594 398.363281 306.261719 399.765625 307.886719 C 405.683594 314.746094 411.699219 321.519531 417.699219 328.304688 C 418.496094 329.203125 419.105469 329.972656 418.027344 331.117188 C 410.746094 338.84375 404.429688 347.46875 396.097656 354.21875 C 378.511719 368.464844 358.613281 377.382812 336.066406 379.660156 C 296.304688 383.671875 263.121094 370.320312 236.804688 340.410156 C 222.515625 324.171875 214.199219 304.933594 210.886719 283.5625 C 209.679688 275.757812 209.242188 267.859375 209.859375 260.011719 C 212.328125 228.777344 225 202.480469 248.519531 181.589844 C 257.726562 173.410156 268.066406 167.003906 279.601562 162.195312 Z M 279.601562 162.195312 " fill-opacity="1" fill-rule="nonzero"/><path fill="#ffffff" d="M 528.210938 202.984375 C 552.585938 207.003906 569.914062 220.164062 579.140625 242.765625 C 593.058594 276.851562 576.296875 314.582031 541.84375 327.574219 C 525.003906 333.925781 508.203125 333.074219 491.796875 325.582031 C 483.886719 321.96875 476.984375 316.988281 471.25 310.398438 C 466.808594 305.285156 462.320312 300.207031 457.71875 295.234375 C 456.195312 293.589844 456.328125 292.460938 457.757812 290.882812 C 463.726562 284.285156 469.640625 277.628906 475.484375 270.917969 C 476.796875 269.410156 477.5625 269.867188 478.632812 271.074219 C 484.113281 277.269531 489.515625 283.539062 495.171875 289.566406 C 504.121094 299.097656 515.230469 302.148438 527.71875 298.835938 C 540.042969 295.5625 548.039062 287.355469 551.25 274.996094 C 556.632812 254.277344 540.902344 234.136719 519.507812 233.96875 C 509.257812 233.890625 500.886719 237.78125 494.128906 245.429688 C 478.175781 263.488281 462.167969 281.5 446.222656 299.574219 C 444.960938 301.003906 444.136719 301.335938 442.734375 299.726562 C 436.734375 292.832031 430.65625 286.011719 424.558594 279.207031 C 423.5625 278.09375 423.59375 277.296875 424.578125 276.191406 C 435.902344 263.496094 447.191406 250.769531 458.484375 238.046875 C 462.722656 233.277344 467.074219 228.601562 471.148438 223.699219 C 480.582031 212.355469 493.070312 206.566406 507.121094 203.554688 C 514.03125 202.074219 521.007812 201.867188 528.210938 202.984375 Z M 528.210938 202.984375 " fill-opacity="1" fill-rule="nonzero"/><path fill="#ffffff" d="M 321.589844 299.996094 C 332.386719 300.363281 341.222656 296.613281 348.246094 288.710938 C 364.253906 270.691406 380.25 252.660156 396.191406 234.582031 C 397.667969 232.910156 398.558594 232.851562 400.035156 234.558594 C 405.902344 241.351562 411.867188 248.066406 417.859375 254.75 C 418.960938 255.980469 418.8125 256.796875 417.785156 257.953125 C 403.484375 274.007812 389.082031 289.972656 375.015625 306.226562 C 368.59375 313.644531 361.65625 320.179688 352.800781 324.585938 C 322.640625 339.605469 287.523438 330.226562 268.925781 302.117188 C 251.523438 275.8125 256.527344 239.59375 280.203125 218.769531 C 290.421875 209.777344 302.128906 204.152344 315.554688 202.777344 C 337.054688 200.578125 355.667969 207.042969 370.632812 222.949219 C 375.324219 227.9375 379.742188 233.183594 384.289062 238.3125 C 386.570312 240.882812 386.554688 240.867188 384.3125 243.40625 C 378.683594 249.777344 373.070312 256.167969 367.4375 262.539062 C 366.878906 263.175781 366.386719 263.929688 365.121094 264.230469 C 361.886719 260.605469 358.617188 256.800781 355.195312 253.140625 C 350.539062 248.152344 346.605469 242.488281 340.652344 238.734375 C 320.246094 225.863281 292.371094 239.855469 290.359375 263.886719 C 288.769531 282.878906 303.1875 299.105469 321.589844 299.996094 Z M 321.589844 299.996094 " fill-opacity="1" fill-rule="nonzero"/><path fill="#ffffff" d="M 462.476562 459.816406 C 462.691406 465.5625 462.691406 465.5625 457.21875 465.589844 C 456.589844 465.59375 455.957031 465.574219 455.328125 465.59375 C 453.539062 465.65625 452.789062 464.847656 452.851562 463.019531 C 453.066406 456.570312 453.410156 450.125 453.539062 443.671875 C 453.675781 436.726562 452.738281 429.851562 452.648438 422.933594 C 452.621094 420.886719 452.5 418.84375 452.503906 416.796875 C 452.503906 415.796875 452.4375 414.605469 453.574219 414.125 C 454.730469 413.636719 455.492188 414.539062 456.191406 415.273438 C 462.710938 422.109375 469.214844 428.964844 475.726562 435.8125 C 478.304688 438.523438 480.890625 441.226562 483.714844 444.1875 C 484.195312 442.445312 483.679688 441.152344 483.679688 439.859375 C 483.683594 432.613281 483.625 425.371094 483.625 418.125 C 483.625 415.027344 484.0625 414.59375 487.191406 414.5625 C 495.109375 414.472656 494.015625 414.382812 494.046875 421.183594 C 494.101562 432.050781 493.773438 442.902344 492.929688 453.742188 C 492.699219 456.707031 493.042969 459.714844 493.078125 462.707031 C 493.089844 463.535156 493.335938 464.457031 492.125 465.527344 C 482.65625 455.707031 473.628906 445.382812 462.839844 436.402344 C 461.914062 444.28125 462.226562 451.9375 462.476562 459.816406 Z M 462.476562 459.816406 " fill-opacity="1" fill-rule="nonzero"/><path fill="#ffffff" d="M 296.703125 455.394531 C 290.382812 448.375 283.105469 442.578125 276.671875 435.753906 C 275.316406 444.007812 275.957031 452.140625 275.824219 460.246094 C 275.820312 460.5625 275.832031 460.878906 275.875 461.191406 C 276.410156 464.960938 276.410156 464.960938 272.4375 464.898438 C 267.605469 464.824219 267.632812 464.824219 267.628906 459.921875 C 267.621094 450.46875 267.691406 441.011719 267.492188 431.5625 C 267.390625 426.695312 266.371094 421.863281 266.613281 416.960938 C 266.664062 415.875 266.433594 414.609375 267.746094 414.121094 C 268.941406 413.679688 269.621094 414.691406 270.308594 415.414062 C 278.941406 424.484375 287.5625 433.570312 296.1875 442.648438 C 296.609375 443.09375 296.898438 443.699219 297.539062 443.878906 C 298.269531 443.5 297.925781 442.894531 297.921875 442.386719 C 297.875 434.039062 297.847656 425.6875 297.734375 417.339844 C 297.710938 415.410156 298.511719 414.597656 300.375 414.585938 C 309.691406 414.515625 307.703125 414.003906 307.964844 421.554688 C 308.429688 434.871094 306.449219 448.128906 306.992188 461.445312 C 307.050781 462.839844 307 464.238281 306.683594 465.878906 C 302.785156 462.988281 300.285156 458.773438 296.703125 455.394531 Z M 296.703125 455.394531 " fill-opacity="1" fill-rule="nonzero"/><path fill="#ffffff" d="M 389.472656 457.53125 C 389.457031 454.148438 389.425781 450.996094 389.429688 447.847656 C 389.429688 445.890625 388.609375 444.785156 386.550781 444.574219 C 381.445312 444.050781 376.335938 444.222656 371.222656 444.402344 C 369.835938 444.449219 369.332031 445.101562 369.375 446.488281 C 369.5625 452.0625 368.890625 457.660156 369.828125 463.214844 C 370.050781 464.554688 369.503906 465.140625 368.1875 465.144531 C 366.457031 465.148438 364.722656 465.101562 362.992188 465.195312 C 361.058594 465.300781 360.609375 464.421875 360.734375 462.613281 C 361.40625 452.867188 361.484375 443.101562 360.601562 433.371094 C 360.121094 428.097656 360.335938 422.832031 360.140625 417.566406 C 360.0625 415.511719 360.960938 414.703125 362.960938 414.808594 C 364.53125 414.894531 366.113281 414.878906 367.683594 414.808594 C 369.621094 414.71875 370.367188 415.601562 370.339844 417.496094 C 370.269531 422.457031 370.363281 427.417969 370.238281 432.375 C 370.1875 434.460938 370.730469 435.335938 373.011719 435.238281 C 377.257812 435.054688 381.519531 435.066406 385.765625 435.214844 C 388.007812 435.296875 388.628906 434.4375 388.574219 432.335938 C 388.460938 427.613281 388.515625 422.886719 388.515625 418.164062 C 388.519531 415.058594 388.734375 414.855469 391.914062 414.828125 C 393.25 414.816406 394.59375 414.882812 395.929688 414.804688 C 397.945312 414.683594 398.761719 415.535156 398.734375 417.578125 C 398.609375 425.917969 398.824219 434.257812 398.058594 442.589844 C 397.417969 449.570312 397.519531 456.582031 397.929688 463.582031 C 397.945312 463.878906 397.855469 464.179688 397.796875 464.628906 C 395.398438 464.628906 393.066406 464.675781 390.738281 464.613281 C 389.574219 464.582031 389.445312 463.648438 389.449219 462.730469 C 389.449219 461.074219 389.464844 459.421875 389.472656 457.53125 Z M 389.472656 457.53125 " fill-opacity="1" fill-rule="nonzero"/><path fill="#ffffff" d="M 328.605469 414.8125 C 332.601562 414.988281 336.394531 414.402344 340.121094 415.410156 C 348.339844 417.628906 353.683594 424.707031 353.195312 432.777344 C 352.742188 440.195312 345.75 447.238281 338.289062 447.675781 C 335.382812 447.847656 332.464844 447.78125 329.550781 447.828125 C 327.65625 447.855469 326.691406 448.613281 326.855469 450.714844 C 327.183594 454.933594 326.332031 459.207031 327.4375 463.402344 C 327.722656 464.480469 327.160156 465.074219 326.039062 465.015625 C 324.078125 464.910156 322.117188 464.746094 320.152344 464.648438 C 318.976562 464.589844 318.753906 463.910156 318.800781 462.902344 C 319.207031 453.847656 318.933594 444.796875 318.632812 435.75 C 318.4375 430.015625 317.984375 424.285156 317.773438 418.546875 C 317.644531 415.082031 317.988281 414.839844 321.515625 414.824219 C 323.800781 414.8125 326.085938 414.816406 328.605469 414.8125 M 328.617188 438.972656 C 330.648438 439.128906 332.683594 439.46875 334.707031 439.398438 C 338.324219 439.273438 341.289062 437.546875 343.007812 434.441406 C 345.136719 430.589844 341.421875 425.441406 336.429688 425.082031 C 334.320312 424.929688 332.195312 425.050781 330.078125 425.003906 C 328.839844 424.976562 328.207031 425.40625 328.15625 426.75 C 328.042969 429.566406 327.761719 432.378906 327.652344 435.195312 C 327.605469 436.410156 327.308594 437.722656 328.617188 438.972656 Z M 328.617188 438.972656 " fill-opacity="1" fill-rule="nonzero"/><path fill="#ffffff" d="M 409.554688 424.789062 C 408.0625 422.269531 406.613281 419.921875 405.273438 417.515625 C 404.339844 415.839844 404.816406 414.953125 406.71875 414.871094 C 409.078125 414.769531 411.445312 414.867188 413.808594 414.820312 C 415.277344 414.789062 415.839844 415.824219 416.4375 416.851562 C 419.046875 421.347656 421.644531 425.847656 424.253906 430.34375 C 424.605469 430.945312 424.992188 431.523438 425.472656 432.289062 C 426.984375 430.976562 427.613281 429.265625 428.511719 427.765625 C 430.703125 424.121094 432.839844 420.445312 434.9375 416.746094 C 435.71875 415.363281 436.730469 414.703125 438.363281 414.785156 C 440.484375 414.894531 442.617188 414.792969 444.742188 414.832031 C 446.523438 414.867188 447.078125 415.855469 446.203125 417.316406 C 441.0625 425.875 436.605469 434.855469 430.601562 442.886719 C 430.078125 443.585938 429.910156 444.246094 429.910156 445.046875 C 429.917969 450.945312 429.347656 456.863281 430.433594 462.726562 C 430.75 464.429688 430.222656 465.265625 428.398438 465.261719 C 426.667969 465.261719 424.941406 465.441406 423.210938 465.5 C 421.445312 465.558594 420.632812 464.742188 420.738281 462.90625 C 421.039062 457.644531 421.699219 452.402344 421.621094 447.113281 C 421.585938 444.960938 420.941406 443.242188 419.773438 441.433594 C 416.265625 436.019531 413.003906 430.445312 409.554688 424.789062 Z M 409.554688 424.789062 " fill-opacity="1" fill-rule="nonzero"/><path fill="#ffffff" d="M 556.269531 424.09375 C 554.222656 425.632812 552.027344 424.914062 549.964844 424.960938 C 543.90625 425.101562 544.136719 425.050781 543.710938 430.996094 C 543.257812 437.273438 542.765625 443.527344 543.242188 449.816406 C 543.554688 453.972656 543.742188 458.132812 543.792969 462.300781 C 543.820312 464.386719 543.179688 465.414062 540.96875 465.269531 C 539.25 465.160156 537.539062 465.59375 535.789062 465.398438 C 534.199219 465.21875 533.625 464.492188 533.71875 462.921875 C 534.234375 454.375 534.339844 445.8125 534.238281 437.257812 C 534.199219 433.726562 533.8125 430.199219 533.664062 426.667969 C 533.605469 425.25 532.824219 425.003906 531.652344 425.015625 C 528.898438 425.039062 526.144531 424.992188 523.390625 425.027344 C 521.445312 425.050781 520.488281 424.199219 520.484375 422.203125 C 520.464844 413.347656 519.835938 414.914062 527.414062 414.839844 C 536.148438 414.753906 544.882812 414.875 553.617188 414.785156 C 555.863281 414.765625 556.824219 415.542969 556.632812 417.804688 C 556.464844 419.835938 556.847656 421.894531 556.269531 424.09375 Z M 556.269531 424.09375 " fill-opacity="1" fill-rule="nonzero"/><path fill="#ffffff" d="M 580.105469 414.8125 C 584.671875 414.816406 589 414.890625 593.328125 414.785156 C 595.40625 414.734375 596.136719 415.628906 596.148438 417.578125 C 596.203125 426.375 596.367188 424.84375 589.097656 425.027344 C 587.296875 425.070312 585.226562 424.375 583.769531 425.320312 C 582.210938 426.328125 583.09375 428.535156 582.863281 430.191406 C 581.519531 439.746094 581.894531 449.34375 582.757812 458.902344 C 583.355469 465.496094 583.574219 465.503906 576.953125 465.542969 C 573.066406 465.566406 572.914062 465.4375 572.917969 461.636719 C 572.929688 454.402344 572.71875 447.160156 573.730469 439.957031 C 574.371094 435.375 572.648438 430.917969 572.855469 426.34375 C 572.910156 425.148438 571.980469 425.027344 571.050781 425.023438 C 568.375 425.015625 565.699219 424.96875 563.023438 425 C 560.96875 425.027344 559.945312 424.1875 560.078125 422.027344 C 560.175781 420.460938 560.15625 418.878906 560.085938 417.308594 C 560.007812 415.472656 560.835938 414.796875 562.632812 414.8125 C 568.378906 414.863281 574.125 414.820312 580.105469 414.8125 Z M 580.105469 414.8125 " fill-opacity="1" fill-rule="nonzero"/><path fill="#ffffff" d="M 246.742188 442.878906 C 246.714844 434.371094 246.738281 426.097656 246.625 417.828125 C 246.59375 415.609375 247.3125 414.605469 249.613281 414.804688 C 251.101562 414.933594 252.609375 414.890625 254.101562 414.808594 C 256.167969 414.691406 256.84375 415.65625 256.871094 417.636719 C 256.992188 426.308594 256.390625 434.957031 256.304688 443.617188 C 256.242188 449.914062 255.976562 456.222656 256.707031 462.503906 C 256.9375 464.484375 256.140625 465.496094 254.113281 465.507812 C 252.460938 465.511719 250.804688 465.539062 249.152344 465.578125 C 247.347656 465.621094 246.664062 464.769531 246.683594 462.96875 C 246.753906 456.351562 246.730469 449.734375 246.742188 442.878906 Z M 246.742188 442.878906 " fill-opacity="1" fill-rule="nonzero"/><path fill="#ffffff" d="M 513.121094 457.011719 C 513.253906 459.203125 513.371094 461.164062 513.523438 463.125 C 513.636719 464.578125 513.003906 465.175781 511.566406 464.96875 C 510.863281 464.867188 510.160156 464.765625 509.453125 464.734375 C 504.34375 464.511719 504.640625 465.167969 504.824219 459.882812 C 505.304688 446.089844 503.636719 432.351562 503.824219 418.566406 C 503.875 414.835938 503.828125 414.808594 507.453125 414.828125 C 514.726563 414.867188 513.929688 413.902344 514.042969 421.363281 C 514.226562 433.183594 513.277344 444.972656 513.121094 457.011719 Z M 513.121094 457.011719 " fill-opacity="1" fill-rule="nonzero"/></svg>